<svg width="606" height="709" viewBox="0 0 606 709" fill="none" xmlns="http://www.w3.org/2000/svg">
<path d="M26.7261 15.7263L-5.02734 16.0284L-5.00007 97.7747L-86.9721 97.9731L-87.2742 129.727L26.6759 129.451L26.7261 15.7263Z" stroke="white" stroke-miterlimit="10"/>
<path opacity="0.9375" d="M27.5743 130.349L-54.3978 130.547L-54.4752 162.525L59.2503 162.025L59.5251 48.5252L27.547 48.6026L27.5743 130.349Z" stroke="white" stroke-miterlimit="10"/>
<path opacity="0.875" d="M60.1487 162.923L-21.8233 163.122L-21.9007 195.1L91.8247 194.599L92.0996 81.0997L60.1215 81.1772L60.1487 162.923Z" stroke="white" stroke-miterlimit="10"/>
<path opacity="0.8125" d="M92.7232 195.498L10.7512 195.697L10.6737 227.675L124.399 227.174L124.674 113.674L92.6959 113.752L92.7232 195.498Z" stroke="white" stroke-miterlimit="10"/>
<path opacity="0.75" d="M125.298 228.073L43.3256 228.271L43.2481 260.249L157.198 259.973L157.248 146.249L125.27 146.326L125.298 228.073Z" stroke="white" stroke-miterlimit="10"/>
<path opacity="0.6875" d="M157.874 260.647L75.9018 260.846L75.8244 292.824L189.775 292.548L189.825 178.824L157.847 178.901L157.874 260.647Z" stroke="white" stroke-miterlimit="10"/>
<path opacity="0.625" d="M190.448 293.222L108.476 293.421L108.399 325.399L222.349 325.123L222.399 211.398L190.421 211.476L190.448 293.222Z" stroke="white" stroke-miterlimit="10"/>
<path opacity="0.5625" d="M223.023 325.797L141.051 325.995L140.973 357.973L254.923 357.697L254.974 243.973L222.995 244.05L223.023 325.797Z" stroke="white" stroke-miterlimit="10"/>
<path opacity="0.5" d="M255.821 358.595L173.849 358.794L173.546 390.547L287.497 390.272L287.547 276.547L255.793 276.849L255.821 358.595Z" stroke="white" stroke-miterlimit="10"/>
<path opacity="0.4375" d="M288.395 391.17L206.423 391.369L206.121 423.122L320.071 422.846L320.121 309.122L288.368 309.424L288.395 391.17Z" stroke="white" stroke-miterlimit="10"/>
<path opacity="0.375" d="M320.971 423.745L238.999 423.943L238.697 455.697L352.647 455.421L352.697 341.696L320.944 341.998L320.971 423.745Z" stroke="white" stroke-miterlimit="10"/>
<path opacity="0.3125" d="M353.546 456.319L271.574 456.518L271.496 488.496L385.222 487.995L385.496 374.496L353.518 374.573L353.546 456.319Z" stroke="white" stroke-miterlimit="10"/>
<path opacity="0.25" d="M386.12 488.894L304.148 489.093L304.071 521.071L417.796 520.57L418.071 407.07L386.093 407.148L386.12 488.894Z" stroke="white" stroke-miterlimit="10"/>
<path opacity="0.1875" d="M418.695 521.469L336.723 521.667L336.645 553.645L450.371 553.145L450.645 439.645L418.667 439.722L418.695 521.469Z" stroke="white" stroke-miterlimit="10"/>
<path opacity="0.125" d="M451.269 554.043L369.297 554.242L369.219 586.22L483.17 585.944L483.22 472.22L451.242 472.297L451.269 554.043Z" stroke="white" stroke-miterlimit="10"/>
<path opacity="0.0625" d="M483.843 586.618L401.871 586.816L401.794 618.794L515.744 618.519L515.794 504.794L483.816 504.872L483.843 586.618Z" stroke="white" stroke-miterlimit="10"/>
</svg>
