<svg width="202" height="153" viewBox="0 0 202 153" fill="none" xmlns="http://www.w3.org/2000/svg">
<path opacity="0.4" d="M178.79 56.5336C148.926 34.5454 117.433 58.4338 90.963 73.4998C70.4655 85.0368 44.2668 93.0449 22.5476 79.7434C-2.56522 64.1345 1.50713 27.8947 28.3846 17.4435C27.7059 21.7868 24.8552 27.3518 23.7693 30.3378C22.4118 34.0025 28.5204 35.767 29.6063 31.9666C30.828 27.7589 32.3212 23.5513 33.5429 19.3437C34.2216 17.0363 35.0361 15.0004 34.2216 12.693C32.1855 7.26377 22.5476 2.92043 17.9323 0.205834C16.1676 -0.744273 13.9957 1.83459 15.6246 3.05616C17.6608 4.68491 19.8327 6.31367 21.8689 8.07815C23.0906 9.16399 25.534 10.657 26.8914 12.15C0.421166 22.4655 -9.89544 56.6693 11.5522 77.9789C38.4297 104.718 77.66 88.1586 104.673 71.4639C124.085 59.5197 147.704 45.2681 170.51 57.4837C190.735 68.2064 200.916 93.995 195.215 115.847C189.514 137.971 166.166 154.123 143.496 146.658C117.976 138.243 110.103 104.989 132.501 88.2943C133.858 87.2085 132.637 84.7654 131.143 85.8512C111.596 99.8314 110.51 128.606 129.243 143.808C150.284 160.91 180.419 152.766 194.265 130.778C209.468 106.754 201.188 72.9569 178.79 56.5336Z" fill="#FFE921"/>
</svg>
