<svg width="84" height="84" viewBox="0 0 84 84" fill="none" xmlns="http://www.w3.org/2000/svg">
<path d="M79.7715 48.9115L79.6699 48.689C79.2836 47.8394 78.8771 46.9494 78.4705 46.2212C77.9622 45.3514 77.5963 45.0075 77.332 44.8862C77.4134 43.9153 77.454 42.9241 77.454 41.933C77.454 39.3034 77.1694 36.7345 76.6002 34.2667C77.2304 34.9545 77.8606 35.5815 78.5924 36.2086C79.5073 36.9975 80.8693 37.9684 81.5808 38.2111L84 39.0809L81.9264 37.5638C81.3369 37.1188 80.5847 36.3906 79.8732 35.6624L79.6902 35.4804C79.0397 34.8129 78.3688 34.1049 77.7183 33.579C76.9458 32.9317 76.4985 32.7295 76.1936 32.7092C75.2381 29.2099 73.7541 25.933 71.8432 22.9596C72.6767 23.3843 73.4898 23.7687 74.4046 24.1125C75.5431 24.5373 77.1287 24.9823 77.8809 24.9823C77.8809 24.9823 77.8809 24.9823 77.9013 24.9823L80.4831 24.9621L78.0029 24.2339C77.2914 24.0316 76.2952 23.5664 75.4211 23.1416L75.2178 23.0405C74.364 22.6359 73.4898 22.2112 72.697 21.9077C71.7415 21.5639 71.2333 21.5234 70.9487 21.6246C68.8751 18.7118 66.3543 16.1227 63.5082 13.9381C64.4434 14.0595 65.3379 14.1404 66.3136 14.1606C66.3543 14.1606 66.395 14.1606 66.4356 14.1606C67.635 14.1606 69.2207 14.0392 69.8916 13.7763L72.3107 12.8863L69.7493 13.0481C69.0174 13.0886 67.9603 13.0076 66.9438 12.9065L66.6999 12.8863C65.7648 12.7851 64.789 12.684 63.9555 12.684C62.939 12.684 62.4511 12.8256 62.2275 13.0076C59.3204 10.9849 56.0881 9.38692 52.6321 8.31486C53.5469 8.11259 54.4008 7.89009 55.3156 7.56645C56.454 7.1619 57.9787 6.47416 58.5479 5.9887L60.5198 4.33005L58.1413 5.34142C57.4501 5.64483 56.454 5.90779 55.4579 6.15052L55.2139 6.2112C54.2991 6.43371 53.364 6.67644 52.5712 6.95962C51.636 7.30349 51.2294 7.58667 51.0668 7.8294C48.1801 7.06076 45.1307 6.65621 42.0203 6.65621C41.4918 6.65621 40.9632 6.67644 40.4347 6.69666C41.2275 6.19098 41.9593 5.68529 42.7115 5.07846C43.6467 4.30982 44.8461 3.13662 45.212 2.50957L46.4927 0.284546L44.6225 2.04434C44.0939 2.55003 43.2197 3.15685 42.3862 3.72322L42.183 3.86481C41.4105 4.39073 40.5973 4.93687 39.9468 5.46279C39.1742 6.11007 38.8896 6.51462 38.8287 6.7978C35.1694 7.12144 31.6931 8.01145 28.4405 9.34647C29.0097 8.61828 29.5179 7.89009 30.0261 7.06076C30.636 6.02916 31.3679 4.51209 31.4898 3.7839L31.9167 1.25547L30.7783 3.5614C30.453 4.22891 29.8432 5.07846 29.2536 5.90779L29.1113 6.11007C28.5624 6.87871 27.9932 7.64736 27.5663 8.37555C27.0581 9.24533 26.9361 9.73079 26.9768 10.014C23.7038 11.5513 20.7154 13.574 18.0726 15.9811C18.3572 15.0911 18.6012 14.2213 18.7638 13.2504C18.9874 12.057 19.15 10.3983 19.0077 9.67011L18.4995 7.18212L18.2149 9.73079C18.1336 10.459 17.8693 11.4704 17.5847 12.4413L17.5237 12.684C17.2594 13.5942 16.9952 14.5247 16.8529 15.3338C16.6699 16.3452 16.7309 16.8306 16.8732 17.0936C14.3524 19.622 12.2178 22.5348 10.5508 25.7105C10.5102 24.78 10.4288 23.89 10.2662 22.9393C10.0629 21.7459 9.65634 20.1277 9.27009 19.5007L7.96902 17.2756L8.5789 19.7636C8.76186 20.4716 8.84317 21.5234 8.92449 22.5348L8.94482 22.7775C9.00581 23.708 9.08712 24.6789 9.22943 25.5082C9.41239 26.4994 9.63601 26.9444 9.8393 27.1467C8.35528 30.3224 7.33882 33.7611 6.87125 37.3616C6.52565 36.512 6.1394 35.7029 5.67183 34.8533C5.08228 33.8015 4.12681 32.426 3.5576 31.9608L1.56534 30.3224L2.98838 32.4665C3.39497 33.0733 3.84221 34.024 4.26912 34.9545L4.37076 35.177C4.75702 36.0468 5.1636 36.9165 5.57018 37.6447C6.07841 38.5145 6.44434 38.8584 6.70862 38.9798C6.6273 39.9507 6.58664 40.9418 6.58664 41.933C6.58664 44.5625 6.87125 47.1314 7.44046 49.5992C6.81026 48.9115 6.18006 48.2844 5.44821 47.6573C4.5334 46.8685 3.17135 45.8976 2.45983 45.6548L0 44.8053L2.07357 46.3223C2.66312 46.7673 3.41529 47.4955 4.12681 48.2237L4.28945 48.4058C4.93998 49.0733 5.63117 49.7812 6.2817 50.3274C7.05421 50.9747 7.50145 51.1769 7.80639 51.1972C8.76186 54.6965 10.2459 57.9734 12.1568 60.9468C11.3233 60.522 10.5102 60.1377 9.59535 59.7938C8.45692 59.3691 6.87125 58.9241 6.11907 58.9241C6.11907 58.9241 6.11907 58.9241 6.09874 58.9241L3.51694 58.9443L5.9971 59.6725C6.70862 59.8748 7.66408 60.3198 8.5789 60.7648L8.80252 60.8659C9.65634 61.2705 10.5305 61.6952 11.3233 61.9986C11.9942 62.2414 12.4414 62.3223 12.7464 62.3223C12.8683 62.3223 12.97 62.3021 13.0513 62.2818C15.1249 65.1946 17.6457 67.7837 20.4918 69.9683C19.5566 69.8469 18.6621 69.766 17.6863 69.7458C16.4666 69.7458 14.7996 69.8671 14.1084 70.1301L11.6893 71.0201L14.2711 70.8583C15.0029 70.8178 16.06 70.8988 17.0765 70.9999L17.3204 71.0201C18.2556 71.1213 19.2314 71.2224 20.0649 71.2224C21.0813 71.2224 21.5692 71.0808 21.7928 70.8988C24.6999 72.9215 27.9322 74.5195 31.3882 75.5915C30.4734 75.7938 29.6196 76.0163 28.7047 76.3399C27.5663 76.7445 26.0416 77.4322 25.4724 77.9177L23.5005 79.5763L25.8587 78.5447C26.5295 78.2413 27.546 77.9784 28.5421 77.7356L28.7861 77.675C29.7009 77.4525 30.636 77.2097 31.4288 76.9265C32.364 76.5827 32.7706 76.2995 32.9332 76.0568C35.8199 76.8254 38.8693 77.2299 41.9797 77.2299C42.5082 77.2299 43.0368 77.2097 43.5653 77.1895C42.7725 77.6952 42.0407 78.2009 41.2885 78.8077C40.3533 79.5763 39.1539 80.7495 38.788 81.3766L37.5073 83.6016L39.3775 81.8418C39.9264 81.3361 40.8209 80.7091 41.6137 80.1629L41.817 80.0213C42.5895 79.4954 43.4027 78.9493 44.0532 78.4234C44.8257 77.7761 45.1104 77.3716 45.1713 77.0884C48.8306 76.7647 52.3069 75.8747 55.5595 74.5397C54.9903 75.2679 54.4821 75.9961 53.9942 76.8254C53.3843 77.857 52.6525 79.3741 52.5305 80.1023L52.1036 82.6307L53.242 80.3248C53.5673 79.6573 54.1772 78.8077 54.7667 77.9784L54.909 77.7761C55.4579 77.0277 56.0271 76.2388 56.454 75.5106C56.9622 74.6408 57.0842 74.1554 57.0436 73.8722C60.3166 72.3349 63.3049 70.3121 65.9477 67.9051C65.6631 68.7951 65.4192 69.6649 65.2565 70.6358C65.0329 71.8292 64.8703 73.4879 65.0126 74.2161L65.4801 76.7445L65.7648 74.1958C65.8461 73.4676 66.1104 72.4563 66.395 71.4853L66.4559 71.2426C66.7202 70.3526 66.9845 69.4221 67.1268 68.5928C67.3098 67.5814 67.2488 67.096 67.1065 66.833C69.6273 64.3046 71.7619 61.412 73.4288 58.2363C73.4695 59.1668 73.5508 60.0568 73.7135 61.0075C73.9167 62.2009 74.3233 63.8191 74.7096 64.4462L76.0106 66.651L75.4008 64.163C75.2178 63.4348 75.1365 62.4032 75.0552 61.3918L75.0348 61.1491C74.9739 60.2186 74.8925 59.2477 74.7502 58.4184C74.5673 57.4272 74.3437 56.9822 74.1404 56.7799C75.6244 53.6042 76.6408 50.1656 77.1084 46.5448C77.454 47.3944 77.8403 48.2035 78.3078 49.053C78.8974 50.1049 79.8529 51.4803 80.4221 51.9456L82.4143 53.584L80.9913 51.4601C80.6254 50.7926 80.1781 49.8419 79.7715 48.9115ZM33.0958 75.4499C33.0552 75.1465 32.9129 74.7015 32.5063 74.0138C32.0794 73.2856 31.5102 72.4967 30.9613 71.7483L30.819 71.546C30.2294 70.7167 29.6196 69.8671 29.2943 69.1996L28.1559 66.8937L28.5828 69.4221C28.7047 70.1503 29.4366 71.6472 30.0465 72.699C30.5344 73.5485 31.0629 74.2767 31.6525 75.0252C28.2168 73.9531 25.0252 72.3754 22.1384 70.3728C22.1994 70.0694 22.1994 69.6042 22.0774 68.8558C21.9351 68.0264 21.6709 67.096 21.4066 66.1857L21.3456 65.943C21.061 64.9721 20.7967 63.9607 20.7154 63.2325L20.4308 60.6839L19.9226 63.1921C19.7803 63.9203 19.9429 65.5789 20.1665 66.7723C20.3495 67.723 20.5731 68.5726 20.8577 69.4626C18.0523 67.3185 15.5721 64.7698 13.5392 61.8773C13.7018 61.6143 13.8645 61.1895 14.0068 60.4209C14.1491 59.5916 14.2304 58.6207 14.2914 57.6902L14.3117 57.4475C14.393 56.4361 14.4743 55.4045 14.6573 54.6763L15.2672 52.1883L13.9661 54.3931C13.5799 55.0404 13.1733 56.6384 12.97 57.8318C12.8074 58.7825 12.726 59.6725 12.6854 60.603C10.7948 57.67 9.33107 54.4336 8.39593 50.9949C8.63988 50.8128 8.94482 50.4487 9.3514 49.7812C9.77831 49.053 10.1646 48.163 10.5508 47.3135L10.6525 47.091C11.0794 46.1605 11.5063 45.2098 11.9332 44.603L13.3562 42.4589L11.364 44.0973C10.7948 44.5625 9.8393 45.938 9.24976 46.9898C8.76186 47.8394 8.39593 48.6485 8.03001 49.5183C7.48112 47.0708 7.17619 44.5423 7.17619 41.933C7.17619 40.9418 7.23717 39.9709 7.31849 39.0202C7.6031 38.9393 8.03001 38.6966 8.61955 38.1909C9.27009 37.6447 9.94095 36.957 10.6118 36.2693L10.7744 36.1074C11.486 35.3793 12.2381 34.6308 12.8277 34.2061L14.9013 32.689L12.4821 33.5588C11.7706 33.8015 10.4288 34.7724 9.49371 35.5613C8.74153 36.1884 8.11133 36.8154 7.48112 37.5234C7.94869 33.9633 8.94482 30.5651 10.4085 27.4096C10.4288 27.4096 10.4695 27.4096 10.4898 27.4096C10.7948 27.4096 11.242 27.3287 11.9129 27.086C12.7057 26.8028 13.5799 26.378 14.4134 25.9735L14.637 25.8521C15.5111 25.4273 16.5073 24.9621 17.2188 24.7598L19.6989 24.0316L17.1171 24.0114C16.365 24.0114 14.759 24.4564 13.6205 24.8812C12.7057 25.2251 11.8925 25.5891 11.0591 26.0342C12.7057 22.8989 14.7996 20.0266 17.3001 17.5386C17.5847 17.66 18.0523 17.7409 18.8248 17.7409C19.6583 17.7409 20.6341 17.6397 21.5692 17.5386L21.8132 17.5184C22.8296 17.4172 23.8664 17.3161 24.6186 17.3768L27.1801 17.5386L24.8015 16.6081C24.1104 16.3452 22.4434 16.2238 21.2236 16.2238C20.2478 16.2238 19.3737 16.3047 18.4385 16.4261C21.0203 14.0595 23.9884 12.0772 27.2004 10.5601C27.424 10.7624 27.8306 11.0051 28.5624 11.2681C29.3553 11.5513 30.2904 11.794 31.2052 12.0165L31.4492 12.0772C32.4453 12.3199 33.4618 12.6031 34.1326 12.8863L36.4908 13.9179L34.5189 12.2592C33.9497 11.7738 32.425 11.086 31.2865 10.6815C30.3717 10.3578 29.4976 10.1353 28.5624 9.93306C31.7744 8.59805 35.2304 7.72827 38.849 7.40463C38.9913 7.66758 39.2962 8.03168 39.8858 8.53737C40.5363 9.08351 41.3291 9.60942 42.122 10.1353L42.3253 10.2769C43.1791 10.8433 44.0329 11.4501 44.5615 11.9558L46.4317 13.7156L45.151 11.4906C44.7851 10.8433 43.5857 9.69033 42.6505 8.92169C41.8984 8.29464 41.1665 7.78895 40.3533 7.28326C40.8819 7.26303 41.4308 7.24281 41.9593 7.24281C45.0494 7.24281 48.0174 7.64736 50.8838 8.39577C50.9245 8.69919 51.0668 9.14419 51.4734 9.83193C51.9003 10.5601 52.4695 11.349 53.0184 12.0974L53.1607 12.2997C53.7502 13.129 54.3601 13.9786 54.6854 14.6461L55.8238 16.9318L55.4376 14.4438C55.3156 13.7156 54.5837 12.2188 53.9739 11.1669C53.4656 10.3174 52.9574 9.5892 52.3679 8.84078C55.8035 9.91284 58.9952 11.4906 61.8819 13.4931C61.8209 13.7965 61.8209 14.2617 61.9429 15.0102C62.0852 15.8395 62.3495 16.77 62.6137 17.6802L62.6747 17.9027C62.9593 18.8736 63.2236 19.885 63.3049 20.6132L63.5895 23.1618L64.0571 20.6334C64.1994 19.9052 64.0368 18.2466 63.8132 17.0531C63.6302 16.1025 63.4066 15.2529 63.122 14.3629C65.9274 16.507 68.4075 19.0557 70.4405 21.9482C70.2778 22.2112 70.1152 22.6359 69.9729 23.4046C69.8306 24.2339 69.7493 25.2048 69.6883 26.1353L69.668 26.378C69.5866 27.3894 69.5053 28.421 69.3224 29.1492L68.7125 31.6372L70.0135 29.4324C70.3998 28.7851 70.8064 27.1871 71.0097 25.9937C71.1723 25.043 71.2536 24.153 71.2943 23.2225C73.1849 26.1555 74.6486 29.3919 75.5837 32.8306C75.3398 33.0126 75.0348 33.3767 74.6283 34.0442C74.2014 34.7724 73.8151 35.6624 73.4288 36.512L73.3272 36.7345C72.9003 37.665 72.4734 38.6157 72.0465 39.2225L70.6234 41.3666L72.6157 39.7282C73.1849 39.2629 74.1404 37.8875 74.7299 36.8356C75.2178 35.9861 75.5837 35.177 75.9497 34.3072C76.4985 36.7547 76.8035 39.2832 76.8035 41.8925C76.8035 42.8837 76.7425 43.8546 76.6612 44.8053C76.3766 44.8862 75.9497 45.1289 75.3601 45.6346C74.7096 46.1807 74.0387 46.8685 73.3679 47.5562L73.2052 47.718C72.4937 48.4462 71.7415 49.1946 71.152 49.6194L69.0784 51.1365L71.4976 50.2667C72.2091 50.024 73.5508 49.053 74.486 48.2642C75.2381 47.6371 75.8683 47.0101 76.4985 46.3021C76.031 49.8621 75.0348 53.2604 73.5711 56.4159C73.2662 56.3956 72.7986 56.4765 72.0668 56.7395C71.274 57.0227 70.3998 57.4475 69.5663 57.852L69.3427 57.9531C68.4279 58.3982 67.4724 58.8432 66.7609 59.0454L64.2807 59.7736L66.8625 59.7938C66.8625 59.7938 66.8625 59.7938 66.8829 59.7938C67.635 59.7938 69.241 59.3488 70.3591 58.9241C71.274 58.5802 72.0871 58.2161 72.9206 57.7711C71.274 60.9064 69.1801 63.7787 66.6796 66.2666C66.395 66.1453 65.9274 66.0644 65.1549 66.0644C64.3214 66.0644 63.3456 66.1655 62.4104 66.2666L62.1665 66.2869C61.15 66.388 60.1133 66.4892 59.3611 66.4285L56.7996 66.2666L59.2188 67.1567C59.8896 67.3994 61.4753 67.541 62.6747 67.541C62.7154 67.541 62.756 67.541 62.7967 67.541C63.7725 67.541 64.6467 67.4601 65.5818 67.3387C63 69.7053 60.0319 71.6876 56.8199 73.2047C56.5963 73.0024 56.1897 72.7597 55.4579 72.4967C54.665 72.2135 53.7299 71.9708 52.8151 71.7483L52.5712 71.6876C51.575 71.4449 50.5586 71.1617 49.8877 70.8785L47.5295 69.8469L49.5014 71.5056C50.0707 71.991 51.5953 72.6788 52.7338 73.0833C53.6486 73.407 54.5227 73.6295 55.4579 73.8317C52.2459 75.1667 48.7899 76.0365 45.1713 76.3602C45.029 76.0972 44.7241 75.7331 44.1346 75.2274C43.484 74.6813 42.6912 74.1554 41.8984 73.6295L41.6951 73.4879C40.8412 72.9215 39.9874 72.3147 39.4589 71.809L37.5886 70.0492L38.8693 72.2742C39.2352 72.9215 40.4347 74.0745 41.3698 74.8431C42.122 75.4702 42.8538 75.9759 43.667 76.4815C43.1384 76.5018 42.5895 76.522 42.061 76.522C38.9303 76.6029 35.9419 76.1983 33.0958 75.4499Z" fill="#FFE921"/>
</svg>
