<svg width="48" height="48" viewBox="0 0 48 48" fill="none" xmlns="http://www.w3.org/2000/svg">
<rect x="0.5" y="0.5" width="47" height="47" rx="23.5" stroke="white"/>
<path d="M29 14H19C16.2386 14 14 16.2386 14 19V29C14 31.7614 16.2386 34 19 34H29C31.7614 34 34 31.7614 34 29V19C34 16.2386 31.7614 14 29 14Z" stroke="white" stroke-width="2" stroke-linecap="round" stroke-linejoin="round"/>
<path d="M27.9999 23.3698C28.1234 24.2021 27.9812 25.052 27.5937 25.7988C27.2062 26.5456 26.5931 27.1512 25.8416 27.5295C25.0901 27.9077 24.2384 28.0394 23.4077 27.9057C22.5771 27.7721 21.8097 27.3799 21.2148 26.785C20.6199 26.1901 20.2277 25.4227 20.094 24.592C19.9604 23.7614 20.092 22.9097 20.4703 22.1582C20.8485 21.4067 21.4541 20.7936 22.2009 20.4061C22.9477 20.0186 23.7977 19.8764 24.6299 19.9998C25.4789 20.1257 26.2648 20.5213 26.8716 21.1281C27.4785 21.735 27.8741 22.5209 27.9999 23.3698Z" stroke="white" stroke-width="2" stroke-linecap="round" stroke-linejoin="round"/>
<path d="M29.5 18.5H29.51" stroke="white" stroke-width="2" stroke-linecap="round" stroke-linejoin="round"/>
</svg>
