<svg width="24" height="20" viewBox="0 0 24 20" fill="none" xmlns="http://www.w3.org/2000/svg">
<path d="M14.7801 20C13.8886 17.1852 13.4428 14.2716 13.4428 11.2593C13.4428 7.85185 14.2874 5.11111 15.9765 3.03704C17.6188 1.01235 20.0352 0 23.2258 0V4.74074C20.7859 4.74074 19.566 6.39506 19.566 9.7037V10.8889H24V20H14.7801ZM1.47801 20C0.492668 16.8889 0 13.9753 0 11.2593C0 7.85185 0.844576 5.11111 2.53373 3.03704C4.22287 1.01235 6.68622 0 9.92375 0V4.74074C7.43695 4.74074 6.19355 6.39506 6.19355 9.7037V10.8889H10.6979V20H1.47801Z" fill="#F4F8F7"/>
</svg>
