<svg width="18" height="17" viewBox="0 0 18 17" fill="none" xmlns="http://www.w3.org/2000/svg">
<path d="M8.82147 1.02837C8.89484 0.879732 9.10679 0.879732 9.18016 1.02837L11.5293 5.78752C11.5584 5.84649 11.6147 5.88739 11.6797 5.8969L16.9334 6.6648C17.0974 6.68877 17.1627 6.89033 17.044 7.00597L13.2428 10.7083C13.1957 10.7543 13.1741 10.8205 13.1853 10.8854L14.0823 16.1156C14.1103 16.279 13.9388 16.4036 13.7921 16.3264L9.0939 13.8557C9.03563 13.825 8.966 13.825 8.90772 13.8557L4.20954 16.3264C4.06281 16.4036 3.8913 16.279 3.91933 16.1156L4.81636 10.8854C4.8275 10.8205 4.80596 10.7543 4.75879 10.7083L0.957617 7.00597C0.838898 6.89033 0.904254 6.68877 1.06824 6.6648L6.32189 5.8969C6.38696 5.88739 6.4432 5.84649 6.4723 5.78752L8.82147 1.02837Z" fill="#FFA800"/>
</svg>
