<svg width="48" height="48" viewBox="0 0 48 48" fill="none" xmlns="http://www.w3.org/2000/svg">
<rect x="0.5" y="0.5" width="47" height="47" rx="23.5" stroke="white"/>
<path d="M35 15.0003C34.0424 15.6758 32.9821 16.1924 31.86 16.5303C31.2577 15.8378 30.4573 15.347 29.567 15.1242C28.6767 14.9015 27.7395 14.9575 26.8821 15.2847C26.0247 15.612 25.2884 16.1947 24.773 16.954C24.2575 17.7133 23.9877 18.6126 24 19.5303V20.5303C22.2426 20.5759 20.5013 20.1861 18.931 19.3957C17.3607 18.6054 16.0103 17.4389 15 16.0003C15 16.0003 11 25.0003 20 29.0003C17.9405 30.3983 15.4872 31.0992 13 31.0003C22 36.0003 33 31.0003 33 19.5003C32.9991 19.2217 32.9723 18.9439 32.92 18.6703C33.9406 17.6638 34.6608 16.393 35 15.0003Z" stroke="white" stroke-width="2" stroke-linecap="round" stroke-linejoin="round"/>
</svg>
